<svg width="10" height="34" viewBox="0 0 10 34" fill="none" xmlns="http://www.w3.org/2000/svg">
<path d="M9 4.81132C9 6.88035 7.24574 8.62264 5 8.62264C2.75426 8.62264 1 6.88035 1 4.81132C1 2.74229 2.75426 1 5 1C7.24574 1 9 2.74229 9 4.81132Z" stroke="#840AAF" stroke-width="2"/>
<path d="M9 17C9 19.0691 7.24574 20.8114 5 20.8114C2.75426 20.8114 1 19.0691 1 17C1 14.931 2.75426 13.1887 5 13.1887C7.24574 13.1887 9 14.931 9 17Z" stroke="#840AAF" stroke-width="2"/>
<path d="M9 29.1886C9 31.2577 7.24574 33 5 33C2.75426 33 1 31.2577 1 29.1886C1 27.1196 2.75426 25.3773 5 25.3773C7.24574 25.3773 9 27.1196 9 29.1886Z" stroke="#840AAF" stroke-width="2"/>
</svg>
